<svg width="131" height="33" viewBox="0 0 131 33" fill="none" xmlns="http://www.w3.org/2000/svg">
<path d="M24.7637 30.5498H5.5874C4.27978 30.5459 3.02717 30.0247 2.10254 29.1C1.1779 28.1754 0.6563 26.9224 0.652344 25.6148V6.43883C0.656564 5.13137 1.17793 3.87869 2.10254 2.95427C3.02715 2.02985 4.27995 1.50878 5.5874 1.50482H24.7637C26.071 1.50878 27.3236 2.02988 28.248 2.95433C29.1725 3.87878 29.6938 5.13147 29.6978 6.43883V25.6148C29.6987 26.263 29.5714 26.905 29.3237 27.5041C29.0761 28.1031 28.7127 28.6474 28.2544 29.1057C27.796 29.5641 27.2519 29.9275 26.6528 30.1751C26.0538 30.4228 25.4119 30.5497 24.7637 30.5488" fill="#8989A2"/>
<path d="M24.7627 1.48782H15.1748V16.0098H29.6968V6.42181C29.6957 5.1133 29.1753 3.85867 28.25 2.93341C27.3247 2.00815 26.0702 1.48788 24.7617 1.48682" fill="#A0A0BD"/>
<path d="M15.1748 30.5498H24.7627C26.0703 30.5458 27.3234 30.0246 28.248 29.1C29.1727 28.1754 29.6938 26.9224 29.6978 25.6148V16.0268H15.1758L15.1748 30.5498Z" fill="#BCBCD8"/>
<path d="M54.6304 13.4438H51.4429C51.352 12.9211 51.1844 12.458 50.9401 12.0546C50.6958 11.6455 50.3918 11.2989 50.0282 11.0148C49.6645 10.7307 49.2498 10.5177 48.7838 10.3756C48.3236 10.2279 47.8265 10.154 47.2924 10.154C46.3435 10.154 45.5026 10.3927 44.7696 10.8699C44.0367 11.3415 43.4628 12.0347 43.0481 12.9495C42.6333 13.8586 42.4259 14.9694 42.4259 16.2819C42.4259 17.6171 42.6333 18.7421 43.0481 19.6569C43.4685 20.566 44.0424 21.2535 44.7696 21.7194C45.5026 22.1796 46.3407 22.4097 47.2838 22.4097C47.8066 22.4097 48.2952 22.3415 48.7498 22.2052C49.21 22.0631 49.6219 21.8557 49.9856 21.583C50.3549 21.3103 50.6645 20.9751 50.9145 20.5773C51.1702 20.1796 51.3463 19.7251 51.4429 19.2137L54.6304 19.2307C54.5111 20.0603 54.2526 20.8387 53.8549 21.566C53.4628 22.2932 52.9486 22.9353 52.3123 23.4921C51.6759 24.0432 50.9316 24.4751 50.0793 24.7876C49.227 25.0944 48.281 25.2478 47.2412 25.2478C45.7071 25.2478 44.3378 24.8927 43.1333 24.1825C41.9287 23.4722 40.9799 22.4467 40.2867 21.1057C39.5935 19.7648 39.2469 18.1569 39.2469 16.2819C39.2469 14.4012 39.5963 12.7932 40.2952 11.458C40.9941 10.1171 41.9458 9.09154 43.1503 8.38131C44.3549 7.67109 45.7185 7.31597 47.2412 7.31597C48.2128 7.31597 49.1162 7.45234 49.9515 7.72506C50.7867 7.99779 51.531 8.39836 52.1844 8.92677C52.8378 9.4495 53.3748 10.0915 53.7952 10.8529C54.2213 11.6086 54.4998 12.4722 54.6304 13.4438ZM60.4749 7.55461V25.0092H57.3897V7.55461H60.4749ZM69.4429 25.2648C68.1304 25.2648 66.9969 24.9921 66.0424 24.4467C65.0935 23.8955 64.3634 23.1171 63.852 22.1114C63.3407 21.1001 63.085 19.9097 63.085 18.5404C63.085 17.1938 63.3407 16.012 63.852 14.995C64.3691 13.9722 65.0907 13.1768 66.0168 12.6086C66.9429 12.0347 68.031 11.7478 69.281 11.7478C70.0878 11.7478 70.8492 11.8785 71.5651 12.1398C72.2867 12.3955 72.9231 12.7932 73.4742 13.333C74.031 13.8728 74.4685 14.5603 74.7867 15.3955C75.1049 16.2251 75.264 17.2137 75.264 18.3614V19.3075H64.5338V17.2279H72.3066C72.3009 16.637 72.1731 16.1114 71.9231 15.6512C71.6731 15.1853 71.3236 14.8188 70.8748 14.5518C70.4316 14.2847 69.9145 14.1512 69.3236 14.1512C68.6929 14.1512 68.139 14.3046 67.6617 14.6114C67.1844 14.9126 66.8123 15.3103 66.5452 15.8046C66.2838 16.2932 66.1503 16.8302 66.1446 17.4154V19.2307C66.1446 19.9921 66.2838 20.6455 66.5623 21.191C66.8407 21.7307 67.2299 22.1455 67.7299 22.4353C68.2299 22.7194 68.8151 22.8614 69.4856 22.8614C69.9344 22.8614 70.3407 22.7989 70.7043 22.6739C71.0679 22.5432 71.3833 22.3529 71.6503 22.1029C71.9174 21.8529 72.1191 21.5432 72.2554 21.1739L75.1361 21.4978C74.9543 22.2592 74.6077 22.9239 74.0963 23.4921C73.5907 24.0546 72.9429 24.4921 72.1532 24.8046C71.3634 25.1114 70.46 25.2648 69.4429 25.2648ZM81.6411 25.2734C80.8115 25.2734 80.0644 25.1256 79.3996 24.8302C78.7405 24.529 78.2178 24.0859 77.8314 23.5006C77.4508 22.9154 77.2604 22.1938 77.2604 21.3359C77.2604 20.5972 77.3968 19.9864 77.6695 19.5035C77.9422 19.0205 78.3144 18.6342 78.786 18.3444C79.2576 18.0546 79.7888 17.8359 80.3797 17.6881C80.9763 17.5347 81.5928 17.4239 82.2292 17.3557C82.9962 17.2762 83.6184 17.2052 84.0956 17.1427C84.5729 17.0745 84.9195 16.9722 85.1354 16.8359C85.357 16.6938 85.4678 16.4751 85.4678 16.1796V16.1285C85.4678 15.4864 85.2775 14.9893 84.8968 14.637C84.5161 14.2847 83.9678 14.1086 83.2519 14.1086C82.4962 14.1086 81.8968 14.2734 81.4536 14.6029C81.0161 14.9325 80.7206 15.3217 80.5672 15.7705L77.6865 15.3614C77.9138 14.566 78.2888 13.9012 78.8115 13.3671C79.3343 12.8273 79.9735 12.4239 80.7292 12.1569C81.4848 11.8842 82.3201 11.7478 83.2348 11.7478C83.8655 11.7478 84.4934 11.8217 85.1184 11.9694C85.7434 12.1171 86.3144 12.3614 86.8314 12.7023C87.3485 13.0376 87.7633 13.495 88.0758 14.0745C88.3939 14.654 88.553 15.3785 88.553 16.2478V25.0092H85.5871V23.2109H85.4848C85.2973 23.5745 85.0331 23.9154 84.6922 24.2336C84.357 24.5461 83.9337 24.7989 83.4223 24.9921C82.9167 25.1796 82.3229 25.2734 81.6411 25.2734ZM82.4422 23.0063C83.0615 23.0063 83.5985 22.8842 84.053 22.6398C84.5076 22.3898 84.857 22.0603 85.1013 21.6512C85.3513 21.2421 85.4763 20.7961 85.4763 20.3131V18.7705C85.3797 18.8501 85.215 18.9239 84.982 18.9921C84.7547 19.0603 84.499 19.12 84.215 19.1711C83.9309 19.2222 83.6496 19.2677 83.3712 19.3075C83.0928 19.3472 82.8513 19.3813 82.6468 19.4097C82.1865 19.4722 81.7746 19.5745 81.411 19.7165C81.0473 19.8586 80.7604 20.0575 80.5502 20.3131C80.34 20.5631 80.2348 20.887 80.2348 21.2847C80.2348 21.8529 80.4422 22.2819 80.857 22.5717C81.2718 22.8614 81.8002 23.0063 82.4422 23.0063ZM91.6553 25.0092V11.9182H94.6468V14.1001H94.7831C95.0218 13.3444 95.4309 12.762 96.0104 12.3529C96.5956 11.9381 97.2633 11.7307 98.0133 11.7307C98.1837 11.7307 98.374 11.7393 98.5843 11.7563C98.8002 11.7677 98.9792 11.7876 99.1212 11.816V14.654C98.9905 14.6086 98.7831 14.5688 98.499 14.5347C98.2206 14.495 97.9508 14.4751 97.6894 14.4751C97.1269 14.4751 96.6212 14.5972 96.1723 14.8415C95.7292 15.0802 95.3797 15.4126 95.124 15.8387C94.8684 16.2648 94.7405 16.7563 94.7405 17.3131V25.0092H91.6553ZM101.307 25.0092V7.55461H104.393V14.083H104.52C104.679 13.7648 104.904 13.4268 105.194 13.0688C105.483 12.7052 105.875 12.3955 106.37 12.1398C106.864 11.8785 107.495 11.7478 108.262 11.7478C109.273 11.7478 110.185 12.0063 110.998 12.5234C111.816 13.0347 112.464 13.7932 112.941 14.7989C113.424 15.7989 113.665 17.0262 113.665 18.4807C113.665 19.9182 113.429 21.1398 112.958 22.1455C112.486 23.1512 111.844 23.9182 111.032 24.4467C110.219 24.9751 109.299 25.2393 108.27 25.2393C107.52 25.2393 106.898 25.1143 106.404 24.8643C105.91 24.6143 105.512 24.3131 105.211 23.9609C104.915 23.6029 104.685 23.2648 104.52 22.9467H104.341V25.0092H101.307ZM104.333 18.4637C104.333 19.3103 104.452 20.0518 104.691 20.6881C104.935 21.3245 105.285 21.8217 105.739 22.1796C106.199 22.5319 106.756 22.708 107.41 22.708C108.091 22.708 108.662 22.5262 109.123 22.1626C109.583 21.7932 109.929 21.2904 110.162 20.654C110.401 20.012 110.52 19.2819 110.52 18.4637C110.52 17.6512 110.404 16.9296 110.171 16.2989C109.938 15.6682 109.591 15.1739 109.131 14.816C108.671 14.458 108.097 14.279 107.41 14.279C106.75 14.279 106.191 14.4523 105.731 14.7989C105.27 15.1455 104.921 15.6313 104.682 16.2563C104.449 16.8813 104.333 17.6171 104.333 18.4637ZM116.288 25.0092V11.9182H119.373V25.0092H116.288ZM117.839 10.0603C117.351 10.0603 116.93 9.89836 116.578 9.5745C116.226 9.24495 116.049 8.85006 116.049 8.38984C116.049 7.92393 116.226 7.52904 116.578 7.20518C116.93 6.87563 117.351 6.71086 117.839 6.71086C118.334 6.71086 118.754 6.87563 119.101 7.20518C119.453 7.52904 119.629 7.92393 119.629 8.38984C119.629 8.85006 119.453 9.24495 119.101 9.5745C118.754 9.89836 118.334 10.0603 117.839 10.0603ZM129.083 11.9182V14.3046H121.557V11.9182H129.083ZM123.415 8.78188H126.5V21.0717C126.5 21.4864 126.563 21.8046 126.688 22.0262C126.819 22.2421 126.989 22.3898 127.199 22.4694C127.41 22.5489 127.643 22.5887 127.898 22.5887C128.091 22.5887 128.268 22.5745 128.427 22.5461C128.591 22.5177 128.716 22.4921 128.802 22.4694L129.321 24.8813C129.157 24.9381 128.921 25.0006 128.614 25.0688C128.313 25.137 127.944 25.1768 127.506 25.1881C126.733 25.2109 126.037 25.0944 125.418 24.8387C124.799 24.5773 124.307 24.1739 123.944 23.6285C123.586 23.083 123.41 22.4012 123.415 21.583V8.78188Z" fill="#8989A2"/>
</svg>
