<svg width="44" height="44" viewBox="0 0 44 44" fill="none" xmlns="http://www.w3.org/2000/svg">
<path d="M37.2637 33.1289L28.0879 27.8281C26.7988 27.0859 25.1504 27.5273 24.4043 28.8164C24.1152 29.3242 24.002 29.8828 24.0567 30.4258V40.7851C24.0567 42.2656 25.2598 43.4687 26.7442 43.4687C28.2246 43.4687 29.4277 42.2656 29.4277 40.7851V34.8281L34.5684 37.7969C35.8574 38.543 37.5098 38.0976 38.252 36.8086C38.9981 35.5195 38.5567 33.8711 37.2637 33.1289Z" fill="#24BFF2"/>
<path d="M14.4434 21.7695C14.4591 20.8125 13.9552 19.9219 13.127 19.4414L3.95125 14.1445C3.55281 13.9141 3.09578 13.793 2.63875 13.793C1.69734 13.793 0.82234 14.2969 0.35359 15.1094C-0.372973 16.3672 0.0606215 17.9805 1.31843 18.707L6.6075 21.7578L1.31843 24.8125C0.709059 25.1641 0.271558 25.7305 0.0918715 26.4102C-0.0917225 27.0898 0.00202751 27.8008 0.35359 28.4102C0.82234 29.2227 1.69734 29.7266 2.63484 29.7266C3.09578 29.7266 3.55281 29.6055 3.95125 29.375L13.127 24.0781C13.9473 23.6016 14.4512 22.7188 14.4434 21.7695Z" fill="#24BFF2"/>
<path d="M6.03328 10.3906L15.2091 15.6875C16.2794 16.3086 17.5997 16.1055 18.4434 15.2812C18.9786 14.7891 19.3106 14.0859 19.3106 13.3047V2.6875C19.3106 1.20312 18.1075 0 16.627 0C15.1427 0 13.9395 1.20312 13.9395 2.6875V8.73047L8.7286 5.72266C7.43953 4.97656 5.7911 5.41797 5.045 6.70703C4.29891 7.99609 4.74422 9.64453 6.03328 10.3906Z" fill="#24BFF2"/>
<path d="M26.6661 22.1992C26.6661 22.4023 26.5489 22.6836 26.4044 22.832L22.7677 26.4688C22.6232 26.6133 22.338 26.7305 22.1349 26.7305H21.2091C21.006 26.7305 20.7208 26.6133 20.5763 26.4688L16.9357 22.832C16.7911 22.6836 16.674 22.4023 16.674 22.1992V21.2734C16.674 21.0664 16.7911 20.7852 16.9357 20.6406L20.5763 17C20.7208 16.8555 21.006 16.7383 21.2091 16.7383H22.1349C22.338 16.7383 22.6232 16.8555 22.7677 17L26.4044 20.6406C26.5489 20.7852 26.6661 21.0664 26.6661 21.2734V22.1992ZM23.42 21.7539V21.7148C23.42 21.5664 23.3341 21.3594 23.2286 21.25L22.1544 20.1797C22.0489 20.0703 21.8419 19.9844 21.6896 19.9844H21.6505C21.5021 19.9844 21.295 20.0703 21.1857 20.1797L20.1154 21.25C20.0099 21.3555 19.924 21.5625 19.924 21.7148V21.7539C19.924 21.9063 20.0099 22.1133 20.1154 22.2188L21.1857 23.293C21.295 23.3984 21.5021 23.4844 21.6505 23.4844H21.6896C21.8419 23.4844 22.0489 23.3984 22.1544 23.293L23.2286 22.2188C23.3341 22.1133 23.42 21.9063 23.42 21.7539Z" fill="#24BFF2"/>
<path d="M28.0879 15.6875L37.2637 10.3906C38.5528 9.64844 38.9981 7.99609 38.252 6.70703C37.5059 5.41797 35.8575 4.97656 34.5684 5.72266L29.4278 8.69141V2.6875C29.4278 1.20312 28.2246 0 26.7442 0C25.2598 0 24.0567 1.20312 24.0567 2.6875V13.0938C24.0059 13.6328 24.1114 14.1953 24.4043 14.7031C25.1504 15.9922 26.7989 16.4336 28.0879 15.6875Z" fill="#24BFF2"/>
<path d="M17.0489 27.5156C16.4395 27.3984 15.7872 27.4961 15.2091 27.8281L6.03328 33.1289C4.74422 33.8711 4.29891 35.5195 5.045 36.8086C5.7911 38.1016 7.43953 38.543 8.7286 37.7969L13.9395 34.7891V40.7852C13.9395 42.2656 15.1427 43.4688 16.627 43.4688C18.1075 43.4688 19.3106 42.2656 19.3106 40.7852V30.168C19.3106 28.8281 18.3302 27.7188 17.0489 27.5156Z" fill="#24BFF2"/>
<path d="M42.9982 15.0781C42.256 13.7852 40.6036 13.3438 39.3146 14.0899L30.1388 19.3867C29.2599 19.8945 28.7755 20.8242 28.7911 21.7695C28.7833 22.711 29.2677 23.6289 30.1388 24.1289L39.3146 29.4297C40.6036 30.1719 42.2521 29.7305 42.9982 28.4414C43.7443 27.1524 43.2989 25.5039 42.0099 24.7578L36.8146 21.7578L42.0099 18.7578C43.3029 18.0156 43.7443 16.3672 42.9982 15.0781Z" fill="#24BFF2"/>
</svg>
